<svg xmlns="http://www.w3.org/2000/svg" viewBox="41.2 90.0 378.8 100.0" role="img" aria-label="StackDeck">
  <title>StackDeck</title>
  <g fill="#ff9900">
    <path d="m 374.00642,142.18404 c -34.99948,25.79739 -85.72909,39.56123 -129.40634,39.56123 -61.24255,0 -116.37656,-22.65135 -158.08757,-60.32496 -3.2771,-2.96252 -0.34083,-6.9999 3.59171,-4.69283 45.01431,26.19064 100.67269,41.94697 158.16623,41.94697 38.774689,0 81.4295,-8.02237 120.6499,-24.67006 5.92501,-2.51683 10.87999,3.88009 5.08607,8.17965"/>
    <path transform="translate(50.109,168.637) scale(0.10451,-0.10451)" d="M286 686Q286 677 254 677Q216 677 200.0 654.5Q184 632 184 581Q184 561 186.0 521.0Q188 481 188 461Q188 358 126 307Q98 284 65 278Q60 277 60 274Q60 270 66 270Q90 269 119 246Q188 193 188 101Q188 79 186.0 36.0Q184 -7 184 -29Q184 -131 242 -129L266 -128Q284 -127 284 -137Q284 -147 256 -147Q219 -147 193 -138Q151 -123 126.0 -84.0Q101 -45 101 6Q101 28 103.5 73.0Q106 118 106 140Q106 209 83.5 233.5Q61 258 32 260Q10 263 10 274Q10 284 32 287Q75 294 92 325Q107 352 107 416Q107 447 104.0 484.5Q101 522 101 543Q101 593 128.0 634.0Q155 675 196 688Q219 695 265 695Q286 695 286 686Z"/>
    <path transform="translate(379.223,168.637) scale(0.10451,-0.10451)" d="M294 274Q294 264 272 261Q231 255 213 223Q198 196 198 132Q198 111 200.5 69.0Q203 27 203 6Q203 -45 176.0 -86.0Q149 -127 108 -140Q86 -147 39 -147Q17 -147 17 -138Q17 -129 50 -129Q89 -129 104.5 -106.5Q120 -84 120 -31Q120 -16 118.0 31.0Q116 78 116 86Q116 191 177 241Q205 264 239 270Q244 272 244 274Q244 278 238 278Q214 279 185 302Q116 356 116 448Q116 470 118.0 513.0Q120 556 120 578Q120 680 61 677L38 676Q20 675 20 685Q20 695 46 695Q84 695 111 686Q154 672 178.5 633.0Q203 594 203 541Q203 519 200.5 474.0Q198 429 198 407Q198 339 220.5 314.5Q243 290 271 288Q294 286 294 274Z"/>
  </g>
</svg>
