<svg xmlns="http://www.w3.org/2000/svg" viewBox="0 0 280 176" role="img" aria-label="StackDeck">
  <title>StackDeck</title>
  <g fill="none" stroke="#ED8E33" stroke-width="10" stroke-linecap="round" stroke-linejoin="round">
    <!-- left curly brace { -->
    <path d="M70 46 C58 46 55 50 55 62 C55 75 52 84 44 88 C52 92 55 101 55 114 C55 126 58 130 70 130" />
    <!-- right curly brace } -->
    <path d="M210 46 C222 46 225 50 225 62 C225 75 228 84 236 88 C228 92 225 101 225 114 C225 126 222 130 210 130" />
    <!-- amazon-style smile swoosh: sweeps right, rises, ends in an arrowhead -->
    <path d="M80 108 C116 150 162 152 192 128 C200 121 206 112 209 100" />
    <!-- arrowhead barb -->
    <path d="M209 100 L191 116" />
  </g>
</svg>
