<svg xmlns="http://www.w3.org/2000/svg" viewBox="16 12 368 116" role="img" aria-label="StackDeck">
  <title>StackDeck</title>
  <g fill="none" stroke="#ED8E33" stroke-width="12" stroke-linecap="round" stroke-linejoin="round">
    <path d="M70 26 C58 26 55 30 55 42 C55 54 52 62 44 66 C52 70 55 78 55 90 C55 102 58 106 70 106" />
    <path d="M330 26 C342 26 345 30 345 42 C345 54 348 62 356 66 C348 70 345 78 345 90 C345 102 342 106 330 106" />
    <path d="M80 86 C140 119 260 119 320 86" />
  </g>
  <path transform="translate(81.266,69.373) scale(0.02478,-0.02478)" fill="#ED8E33" d="M588 289Q588 330 564.5 352.5Q541 375 469 401L309 465Q184 514 129.0 585.5Q74 657 74.0 782.0Q74 907 185.5 992.0Q297 1077 476.0 1077.0Q655 1077 801 1010V811Q646 858 536.0 858.0Q426 858 387.0 837.5Q348 817 348.0 777.0Q348 737 371.5 715.5Q395 694 471 664L627 600Q754 549 808.0 481.5Q862 414 862 305Q862 153 746.5 60.0Q631 -33 431.0 -33.0Q231 -33 70 51V250Q272 187 430.0 187.0Q588 187 588 289ZM1411 -16Q1089 -16 1089 319V825H931V1010L1097 1042L1142 1329H1388V1047H1671V825H1388V334Q1388 268 1421.0 241.5Q1454 215 1524.5 215.0Q1595 215 1677 227V27Q1567 -16 1411 -16ZM2213 168Q2318 168 2419 252V430Q2329 444 2258 444Q2080 444 2079 301Q2079 238 2114.5 203.0Q2150 168 2213 168ZM2129 -33Q1977 -33 1886.0 53.0Q1795 139 1795 283Q1795 484 1985 573Q2077 616 2188.5 616.0Q2300 616 2419 590V692Q2419 786 2380.5 821.0Q2342 856 2205.5 856.0Q2069 856 1867 793V991Q1943 1030 2057.5 1053.5Q2172 1077 2290 1077Q2501 1077 2598.5 992.0Q2696 907 2696 725V0H2460L2436 92Q2373 35 2289.5 1.0Q2206 -33 2129 -33ZM3451 1069Q3601 1069 3728 1004V805Q3607 840 3507 840Q3364 840 3296.0 767.0Q3228 694 3228 537V508Q3228 352 3294.5 279.5Q3361 207 3481.0 207.0Q3601 207 3734 244V45Q3621 -23 3439 -23Q3189 -23 3057.0 116.5Q2925 256 2925.0 517.0Q2925 778 3064.5 923.5Q3204 1069 3451 1069ZM3946 0V1516H4243V600L4606 1047H4962L4530 547L4995 0H4630L4243 477V0ZM5602 852Q5387 852 5387 528Q5388 204 5608 203Q5716 203 5805 260V801Q5717 852 5602 852ZM5518 -23Q5389 -23 5291.0 41.5Q5193 106 5138.5 229.0Q5084 352 5084 518Q5084 772 5205.0 924.5Q5326 1077 5524 1077Q5686 1077 5805 985V1516H6104V0H5844L5819 92Q5692 -23 5518 -23ZM6837 870Q6737 870 6678.5 810.0Q6620 750 6612 635H7013V670Q7013 870 6837 870ZM7269 647Q7269 535 7248 451H6614Q6622 316 6695.5 255.5Q6769 195 6916.5 195.0Q7064 195 7246 246V47Q7094 -31 6852.0 -31.0Q6610 -31 6473.5 110.5Q6337 252 6337.0 519.0Q6337 786 6472.0 931.5Q6607 1077 6828.5 1077.0Q7050 1077 7159.5 965.5Q7269 854 7269 647ZM7970 1069Q8120 1069 8247 1004V805Q8126 840 8026 840Q7883 840 7815.0 767.0Q7747 694 7747 537V508Q7747 352 7813.5 279.5Q7880 207 8000.0 207.0Q8120 207 8253 244V45Q8140 -23 7958 -23Q7708 -23 7576.0 116.5Q7444 256 7444.0 517.0Q7444 778 7583.5 923.5Q7723 1069 7970 1069ZM8465 0V1516H8762V600L9125 1047H9481L9049 547L9514 0H9149L8762 477V0Z"/>
</svg>
