<svg width="40" height="40" xmlns="http://www.w3.org/2000/svg"><defs><linearGradient x1="0%" y1="100%" x2="100%" y2="0%" id="a"><stop stop-color="#BD0816" offset="0%"/><stop stop-color="#FF5252" offset="100%"/></linearGradient></defs><g fill="none" fill-rule="evenodd"><path d="M0 0h40v40H0z" fill="url(#a)"/><path d="M20 7a6 6 0 0 0-6 6v3h-1.5A1.5 1.5 0 0 0 11 17.5v13A1.5 1.5 0 0 0 12.5 32h15a1.5 1.5 0 0 0 1.5-1.5v-13a1.5 1.5 0 0 0-1.5-1.5H26v-3a6 6 0 0 0-6-6Zm0 2a4 4 0 0 1 4 4v3h-8v-3a4 4 0 0 1 4-4Zm0 11a2 2 0 0 1 1 3.732V27h-2v-3.268A2 2 0 0 1 20 20Z" fill="#FFF"/></g></svg>